<svg xmlns="http://www.w3.org/2000/svg" viewBox="0 0 24 30" x="0px" y="0px"><g data-name="Layer 2"><path d="M12,23A11,11,0,1,1,23,12,11.0125,11.0125,0,0,1,12,23ZM12,3a9,9,0,1,0,9,9A9.01,9.01,0,0,0,12,3Zm5.5811,11.814a1,1,0,0,0,.2324-1.3951L14.4414,8.6968a3.0006,3.0006,0,0,0-4.8828.0005L6.1865,13.4189a1,1,0,1,0,1.627,1.1622L11.1855,9.86a1.03,1.03,0,0,1,1.629,0l3.372,4.7217a1,1,0,0,0,1.3946.2329Z" fill="#303446"/></g><text x="0" y="39" fill="#303446" font-size="5px" font-weight="bold" font-family="'Helvetica Neue', Helvetica, Arial-Unicode, Arial, Sans-serif">Created by Hary Murdiono JS</text><text x="0" y="44" fill="#303446" font-size="5px" font-weight="bold" font-family="'Helvetica Neue', Helvetica, Arial-Unicode, Arial, Sans-serif">from the Noun Project</text></svg>