<svg xmlns="http://www.w3.org/2000/svg" xmlns:xlink="http://www.w3.org/1999/xlink" viewBox="0,0,256,256" width="50px" height="50px" fill-rule="nonzero"><g fill="#303446" fill-rule="nonzero" stroke="none" stroke-width="1" stroke-linecap="butt" stroke-linejoin="miter" stroke-miterlimit="10" stroke-dasharray="" stroke-dashoffset="0" font-family="none" font-weight="none" font-size="none" text-anchor="none" style="mix-blend-mode: normal"><g transform="scale(5.12,5.12)"><path d="M20,9v5h-10v5h-5v5h-3.875c-0.48437,0 -0.88281,0.33594 -0.96875,0.8125c-0.00781,0.03516 -0.15625,0.87109 -0.15625,1.9375c0,0.69922 0.06641,1.46094 0.1875,2.21875c1.14453,-0.27344 3.24219,-0.68359 2.875,-2.03125c1.97266,2.28516 6.70703,1.59375 7.90625,0.46875c1.33984,1.94141 9.14453,1.19922 9.6875,-0.3125c1.67969,1.96875 6.88672,1.96875 8.5625,0c0.54297,1.51172 8.31641,2.25391 9.65625,0.3125c0.42578,0.39844 1.3125,0.73047 2.34375,0.90625c0.34766,-0.66016 0.66797,-1.32422 0.96875,-2.03125c6.35156,-0.07812 7.72266,-4.64453 7.78125,-4.84375c0.10938,-0.38281 -0.03906,-0.77734 -0.34375,-1.03125c-0.10547,-0.08984 -2.44922,-1.99219 -6.25,-1.34375c-1.06641,-3.47266 -3.8125,-5.05469 -3.9375,-5.125c-0.35937,-0.20312 -0.80469,-0.17187 -1.125,0.09375c-0.10156,0.08203 -2.46484,2.08594 -2.09375,6.1875c0.09375,1.03125 0.36328,1.94141 0.78125,2.75c-0.82031,0.45703 -2.23047,1.03125 -4.5,1.03125h-0.5v-5h-5v-10zM41.21875,28.3125c-0.12109,0.23438 -0.27734,0.46094 -0.40625,0.6875h9.03125c-1.08594,-0.27344 -3.41797,-0.64062 -3.03125,-2.0625c-1.27734,1.47656 -3.70312,1.69531 -5.59375,1.375zM40.8125,29h-40.625c0.24219,1.46875 0.74219,3.00781 1.5,4.5c5.42969,1.27734 11.12891,-0.66797 11.1875,-0.6875c0.52344,-0.18359 1.07031,0.10547 1.25,0.625c0.18359,0.51953 -0.07422,1.10156 -0.59375,1.28125c-0.19141,0.06641 -3.625,1.21875 -7.84375,1.21875c-0.83594,0 -1.71484,-0.04687 -2.59375,-0.15625c2.625,3.48047 7.07422,6.21875 13.90625,6.21875c10.80469,0 19.11328,-4.58984 23.8125,-13zM0.1875,29c-0.00391,-0.01562 0.00391,-0.01562 0,-0.03125c-0.06641,0.01563 -0.12891,0.01563 -0.1875,0.03125zM22,11h3v3h-3zM12,16h3v3h-3zM17,16h3v3h-3zM22,16h3v3h-3zM7,21h3v3h-3zM12,21h3v3h-3zM17,21h3v3h-3zM22,21h3v3h-3zM27,21h3v3h-3zM16,31c0.12891,0 0.26172,0.01953 0.375,0.0625c-0.12109,0.07031 -0.21875,0.19141 -0.21875,0.34375c0,0.22656 0.17969,0.4375 0.40625,0.4375c0.15234,0 0.30469,-0.09375 0.375,-0.21875c0.05078,0.11719 0.0625,0.23828 0.0625,0.375c0,0.55078 -0.44922,1 -1,1c-0.55078,0 -1,-0.44922 -1,-1c0,-0.55078 0.44922,-1 1,-1z"></path></g></g></svg>