<svg xmlns="http://www.w3.org/2000/svg" xmlns:xlink="http://www.w3.org/1999/xlink" viewBox="0,0,256,256" width="50px" height="50px" fill-rule="nonzero"><g fill="#efedea" fill-rule="nonzero" stroke="none" stroke-width="1" stroke-linecap="butt" stroke-linejoin="miter" stroke-miterlimit="10" stroke-dasharray="" stroke-dashoffset="0" font-family="none" font-weight="none" font-size="none" text-anchor="none" style="mix-blend-mode: normal"><g transform="scale(5.12,5.12)"><path d="M23.799,20.071c0.375,-0.547 0.787,-0.618 1.122,-0.618c0.333,0 0.889,0.071 1.264,0.618c4.895,6.668 15.047,24.257 15.985,25.215c1.39,1.419 3.298,0.535 4.406,-1.074c1.093,-1.585 1.395,-2.697 1.395,-3.883c0,-0.808 -15.81,-29.975 -17.404,-32.403c-1.531,-2.337 -2.03,-2.926 -4.649,-2.926h-1.96c-2.614,0 -2.992,0.589 -4.522,2.923c-1.597,2.433 -17.406,31.6 -17.406,32.408c0,1.188 0.302,2.298 1.395,3.883c1.107,1.609 3.016,2.495 4.406,1.074c0.939,-0.958 11.076,-18.547 15.969,-25.213z"></path></g></g></svg>