<svg xmlns="http://www.w3.org/2000/svg" xmlns:xlink="http://www.w3.org/1999/xlink" viewBox="0,0,256,256" width="16px" height="16px" fill-rule="nonzero"><g fill="#efedea" fill-rule="nonzero" stroke="none" stroke-width="1" stroke-linecap="butt" stroke-linejoin="miter" stroke-miterlimit="10" stroke-dasharray="" stroke-dashoffset="0" font-family="none" font-weight="none" font-size="none" text-anchor="none" style="mix-blend-mode: normal"><g transform="scale(16,16)"><path d="M8,1.02344c-0.26312,0 -0.52577,0.06903 -0.75977,0.20703l-4.5,2.64844c-0.457,0.268 -0.74023,0.76397 -0.74023,1.29297v5.83398c0,0.549 0.29925,1.05341 0.78125,1.31641l1.47461,0.80469c0.227,0.124 0.47275,0.18359 0.71875,0.18359c0.264,0 0.52467,-0.07094 0.76367,-0.21094c0.46,-0.273 0.73438,-0.75501 0.73438,-1.29101v-6.34375h-1v6.34375c0,0.257 -0.17014,0.38669 -0.24414,0.42969c-0.073,0.043 -0.26914,0.13277 -0.49414,0.00977l-1.47266,-0.80274c-0.161,-0.088 -0.26172,-0.25645 -0.26172,-0.43945v-5.83398c0,-0.176 0.09409,-0.34164 0.24609,-0.43164l4.5,-2.64844c0.156,-0.092 0.35181,-0.091 0.50781,0l4.5,2.64844c0.151,0.09 0.24609,0.25564 0.24609,0.43164v5.83789c0,0.18 -0.09977,0.34945 -0.25977,0.43945l-4.5,2.45117c-0.15,0.08 -0.33047,0.08 -0.48047,0l-0.87891,-0.48047c-0.17,0.21 -0.38086,0.39101 -0.63086,0.54102c-0.08,0.05 -0.16023,0.08914 -0.24023,0.11914l1.26953,0.69922c0.23,0.12 0.4707,0.18164 0.7207,0.18164c0.25,0 0.4907,-0.06164 0.7207,-0.18164l4.5,-2.45899c0.48,-0.26 0.7793,-0.76055 0.7793,-1.31055v-5.83789c0,-0.529 -0.28228,-1.02497 -0.73828,-1.29297l-4.5,-2.64844c-0.2345,-0.138 -0.49859,-0.20703 -0.76172,-0.20703zM9.45117,5.31836c-1.58,0 -2.38086,0.55072 -2.38086,1.63672c0,1.23 1.41666,1.413 2.09766,1.5c0.098,0.013 0.18491,0.02411 0.25391,0.03711l0.29883,0.05273c1.04,0.174 1.2793,0.29195 1.2793,0.62695c0,0.162 -0.00083,0.65234 -1.54883,0.65234c-1.313,0 -1.58203,-0.38961 -1.58203,-0.97461h-1c0,0.902 0.44803,1.97461 2.58203,1.97461c2.106,0 2.54883,-0.89834 2.54883,-1.65234c0,-1.258 -1.22228,-1.46423 -2.11328,-1.61523l-0.28711,-0.04883c-0.083,-0.015 -0.18769,-0.02897 -0.30469,-0.04297c-0.636,-0.082 -1.22461,-0.19981 -1.22461,-0.50781c0,-0.223 -0.00114,-0.63767 1.38086,-0.63867c0.919,0 1.38672,0.30244 1.38672,0.89844h1c0,-0.917 -0.62872,-1.89844 -2.38672,-1.89844z"></path></g></g></svg>