<svg xmlns="http://www.w3.org/2000/svg" xmlns:xlink="http://www.w3.org/1999/xlink" viewBox="0,0,256,256" width="50px" height="50px" fill-rule="nonzero"><g fill="#efedea" fill-rule="nonzero" stroke="none" stroke-width="1" stroke-linecap="butt" stroke-linejoin="miter" stroke-miterlimit="10" stroke-dasharray="" stroke-dashoffset="0" font-family="none" font-weight="none" font-size="none" text-anchor="none" style="mix-blend-mode: normal"><g transform="scale(5.12,5.12)"><path d="M35.19922,2.10156c-1.5,0 -2.80078,0.29688 -4,0.59766c2.10156,0.89844 3.40234,2 4.10156,2.5c1.60156,1.39844 2.5,2.80078 4.10156,5.10156c0.29688,0.5 0.79688,1.19922 1.09766,2.29688c0.30078,1 0.30078,1.80078 0.30078,2.60156c0,1.10156 -0.10156,2 -0.20312,2.89844c-0.09766,0.70313 -0.09766,1.00391 -0.19531,1.20313c0,0.10156 0,0.19922 -0.10156,0.39844c0,0.5 0,0.70313 0.10156,1.10156c0,0.39844 0.09766,0.80078 0.09766,1.5c0.10156,1.30078 0.10156,2.19922 -0.09766,3.29688v0.40234c-0.20312,0.89844 -0.40234,1.80078 -0.90234,2.59766c0.10156,0.20313 0.19922,0.30078 0.30078,0.5c0.5,-0.69922 0.89844,-1.39844 1.29688,-2.19531c1.20313,-2.20312 1.90234,-4.10156 2.40234,-5.5c0.89844,-2.60156 1.39844,-4.50391 1.69922,-5.90234c0.69922,-3 0.80078,-4.39844 0.5,-6c0,-0.5 -0.19922,-1.40234 -0.69922,-2.30078c-1.10156,-2 -2.80078,-2.89844 -4,-3.5c-0.80078,-0.39844 -2.90234,-1.5 -5.80078,-1.59766zM13.53516,2.54297c-1.15234,-0.02344 -2.55859,0.10547 -4.13672,0.85547c-0.5,0.20313 -2,0.90234 -3.19922,2.5c-0.80078,1 -1.39844,2.5 -1.69922,4.19922c-0.30078,1.5 -0.40234,3.30469 0.19922,6.70313c0.39844,2.39844 0.80078,4 1.60156,7.29688c0.10156,0.40234 0.69922,2.20313 2,6.20313l0.09766,0.19922c0.20313,0.69922 0.80078,2.19922 2.10156,3.69922c0.89844,1 1.69922,1.60156 2.40234,1.60156h0.19531c1.30078,0 2.20313,-1 3,-1.80078c0,-0.10156 1.90234,-2.39844 2.60156,-3.19922c-0.10156,-0.10156 -0.29687,-0.10156 -0.39844,-0.20312c-1.19922,-0.69922 -2.10156,-1.79687 -2.80078,-3c-1.19922,-2.19922 -1.10156,-4.39844 -0.90234,-5.5l0.10156,-1.69531c-0.39844,-2.70312 -0.29687,-5.30078 0.20313,-7.90234c0.39844,-2.19922 0.89844,-4.39844 2.69531,-6.69922c0.60156,-0.80078 1.30078,-1.5 2,-2c-1.59766,-0.69922 -3.29687,-1.10156 -5,-1.19922c-0.32422,-0.02734 -0.67969,-0.05078 -1.0625,-0.05859zM26.09766,3.39844c-0.5,0 -1,0 -1.5,0.10156c-2,0.39844 -3.89844,1.5 -5.39844,3.39844c-1.5,1.90234 -1.89844,3.69922 -2.29687,5.80078c-0.20312,0.80078 -0.20312,1.5 -0.30469,2.30078c0.60156,-0.5 1.40234,-1.10156 2.60156,-1.40234c0.69922,-0.19922 2.5,-0.79687 4,0.10156c0.5,0.30078 1.19922,0.90234 1.89844,2.60156c1.5,4.19922 0.00391,8.5 -0.19531,8.89844c-0.10156,0.39844 -0.30078,0.69922 -0.40234,0.89844c-0.19922,0.5 -0.39844,0.90234 -0.59766,1.70313c-0.10156,0.69922 -0.20312,1.30078 -0.20312,2c0.30078,0 0.60156,0.09766 0.89844,0.29688c0.5,0.5 0.60156,1.20313 0.70313,1.5c0.19922,1.60156 0.19922,3.60156 0.19922,5.60156c0,1.60156 0,3.10156 0.09766,4.10156c0.20313,2.30078 0.90234,3.89844 1.90234,4.69922c0.69922,0.60156 1.59766,0.59766 2.09766,0.69922h0.20313c1.5,0 3.89844,-1 4.79688,-2.39844c0.5,-0.80078 0.70313,-1.5 0.90234,-2.5c0.10156,-0.60156 0.09766,-0.89844 0.19922,-1.5c0,-0.30078 0.10156,-0.80078 0.10156,-1.39844c0,-0.5 0.09766,-1.10156 0.19922,-1.80469c0.10156,-1.69922 0.39844,-3.69531 0.5,-4.79687c0.10156,-1.30078 0.69922,-2.40234 1.19922,-3.10156c-0.69922,-0.10156 -1.39844,-0.69922 -1.79687,-1.69922c-0.60156,-1.10156 -0.70312,-1.40234 -0.80469,-1.90234c-0.09766,-0.39844 -0.29687,-0.89844 -1,-2.39844c-1.5,-3.39844 -1.69531,-4.39844 -1.69531,-5.19922c-0.10156,-1.10156 -0.20312,-2.59766 1,-3.59766c1.79688,-1.60156 4.09766,-1.5 5.29688,-1.10156v-0.20312c-0.19922,-0.79687 -0.59766,-1.39844 -0.89844,-1.79687c-1.5,-2.30078 -2.30078,-3.5 -3.70312,-4.69922c-0.59766,-0.5 -2.09766,-1.70312 -4.29687,-2.5c-1,-0.30078 -2.20312,-0.70312 -3.70312,-0.70312zM37.15234,15.125c-0.72656,-0.05078 -1.65234,0.07422 -2.45312,0.77734c-0.39844,0.39844 -0.39844,1.19922 -0.29687,1.89844c0,0.5 0.09766,1.19922 1.59766,4.60156c0.69922,1.59766 0.89844,2.09766 1,2.5c0.10156,0.39844 0.19922,0.59766 0.80078,1.69531c0.10156,0.20313 0.19922,0.40234 0.39844,0.60156c0.19922,-0.30078 0.30078,-0.80078 0.39844,-1.60156l0.10156,-0.29687c0.19922,-0.89844 0.10156,-1.60156 0.10156,-2.80078c0,-0.60156 -0.10156,-1 -0.10156,-1.30078c-0.10156,-0.5 -0.10156,-0.89844 -0.10156,-1.5c-0.19922,-0.30078 -0.19922,-0.39844 -0.09766,-0.60156c0,-0.19922 0.09766,-0.49609 0.19922,-1.09766c0.10156,-0.80078 0.20313,-1.5 0.20313,-2.30078c-0.20312,-0.10156 -0.30078,-0.19922 -0.5,-0.29687c0,0 -0.52734,-0.22656 -1.25,-0.27734zM21.51563,15.51953c-0.63672,-0.07422 -1.36719,0.13281 -1.81641,0.28125c-1.10156,0.30078 -1.79687,1 -2.29687,1.39844c-0.30078,0.30078 -0.60156,0.60156 -0.90234,1c0,0.69922 0.09766,1.40234 0.19922,2.10156v0.10156l-0.19922,2c-0.19922,0.89844 -0.30078,2.59766 0.69922,4.29688c0.5,1 1.20313,1.80078 2.10156,2.30078c0.60156,0.39844 1.39844,0.69922 2.29688,0.90234c0,-0.70312 0.10156,-1.50391 0.20313,-2.20312c0.19922,-1 0.39844,-1.5 0.69922,-2.10156c0.10156,-0.29687 0.19922,-0.49609 0.40234,-0.79687c0.09766,-0.30078 1.49609,-4.10156 0.19531,-7.60156c-0.29687,-0.80078 -0.59766,-1.30078 -1,-1.5c-0.17187,-0.10156 -0.375,-0.15625 -0.58203,-0.17969zM36.1875,16.08984c0.26172,-0.01562 0.51172,0.00781 0.61328,0.10938c0.30078,0.19922 -0.10156,0.69922 -0.20312,0.80078c-0.09766,0.10156 -0.29687,0.30078 -0.59766,0.40234c-0.39844,0.09766 -0.69922,-0.20312 -0.80078,-0.20312c-0.10156,-0.10156 -0.39844,-0.39844 -0.29687,-0.69922c0.09766,-0.19922 0.19922,-0.19922 0.59766,-0.30078c0.14844,-0.05078 0.42578,-0.09766 0.6875,-0.10937zM21.15625,16.91797c0.33594,-0.02344 0.61719,0.10547 0.84375,0.17969c0.30078,0.10156 0.59766,0.20313 0.59766,0.40234c0.10156,0.30078 -0.19531,0.5 -0.29687,0.59766c-0.30078,0.30078 -0.80078,0.30469 -0.80078,0.30469c-0.5,0 -0.80078,-0.30078 -1,-0.60156c-0.10156,-0.10156 -0.19922,-0.30078 -0.09766,-0.5c0.09766,-0.19922 0.29688,-0.30078 0.39844,-0.30078c0.125,-0.05078 0.24219,-0.07422 0.35547,-0.08203zM39.5,30c-0.5,0.69922 -1.19922,1.60156 -1.30078,2.80078c0,0.19922 0,0.30078 -0.10156,0.5c0.80078,0.19922 1.50391,0.19922 2.20313,0.10156c1.60156,-0.20312 2.69922,-1.00391 2.89844,-1.20312c0.69922,-0.5 1.60156,-1.5 1.39844,-1.89844c-0.09766,-0.19922 -0.39844,-0.10156 -2,0c-0.39844,0 -1.59766,0.30078 -2.39844,0.10156h-0.19922c-0.19922,-0.10156 -0.39844,-0.20312 -0.5,-0.40234zM22.09766,32c-0.19922,0.30078 -0.49609,0.5 -0.69531,0.69922c-0.80078,0.5 -1.80469,0.90234 -2.80469,1.10156c-0.89844,0.30078 -1.39844,0.30078 -1.39844,0.60156c-0.10156,0.39844 0.89844,0.89844 1.39844,1.09766c1.70313,0.69922 3.40234,0.30078 3.70313,0.19922c0.19922,-0.10156 0.69922,-0.30078 1.19922,-0.60156c0,-1.09766 -0.09766,-2.09766 -0.19922,-2.89844v-0.10156h-0.10156c-0.30078,0 -0.69922,0.00391 -1.10156,-0.09766z"></path></g></g></svg>