<svg xmlns="http://www.w3.org/2000/svg" xmlns:xlink="http://www.w3.org/1999/xlink" viewBox="0,0,256,256" width="48px" height="48px" fill-rule="nonzero"><g fill="#efedea" fill-rule="nonzero" stroke="none" stroke-width="1" stroke-linecap="butt" stroke-linejoin="miter" stroke-miterlimit="10" stroke-dasharray="" stroke-dashoffset="0" font-family="none" font-weight="none" font-size="none" text-anchor="none" style="mix-blend-mode: normal"><g transform="scale(5.33333,5.33333)"><path d="M44.284,36.035l-16.597,-34.606c-0.855,-1.783 -3.337,-1.93 -4.397,-0.26l-18.404,29.008c-0.397,0.625 -0.385,1.426 0.029,2.04l9.271,13.738c0.575,0.852 1.634,1.237 2.623,0.953l25.942,-7.458c1.457,-0.419 2.188,-2.048 1.533,-3.415zM40.618,37.279l-21.818,6.109c-0.505,0.142 -0.98,-0.305 -0.87,-0.818l7.735,-36.097c0.139,-0.65 1.023,-0.755 1.311,-0.157l14.265,29.621c0.248,0.544 -0.047,1.181 -0.623,1.342z"></path></g></g></svg>